<svg width="16" height="16" viewBox="0 0 16 16" fill="none" xmlns="http://www.w3.org/2000/svg">
<path fill-rule="evenodd" clip-rule="evenodd" d="M5.08502 2.30002C5.08502 1.76699 5.51718 1.33502 6.05005 1.33502H9.94999C10.4829 1.33502 10.915 1.76699 10.915 2.30002V3.83502H13.5C13.8673 3.83502 14.165 4.13275 14.165 4.50002C14.165 4.86729 13.8673 5.16502 13.5 5.16502H12.915V14.2C12.915 14.733 12.483 15.165 11.95 15.165H4.05002C3.51707 15.165 3.08502 14.733 3.08502 14.2V5.16502H2.50002C2.13275 5.16502 1.83502 4.86729 1.83502 4.50002C1.83502 4.13275 2.13275 3.83502 2.50002 3.83502H5.08502V2.30002ZM6.41502 3.83502H9.58502V2.66502H6.41502V3.83502ZM4.41502 5.16502V13.835H11.585V5.16502H4.41502ZM6.50002 6.33502C6.86729 6.33502 7.16502 6.63275 7.16502 7.00002V12C7.16502 12.3673 6.86729 12.665 6.50002 12.665C6.13275 12.665 5.83502 12.3673 5.83502 12V7.00002C5.83502 6.63275 6.13275 6.33502 6.50002 6.33502ZM9.50002 6.33502C9.86729 6.33502 10.165 6.63275 10.165 7.00002V12C10.165 12.3673 9.86729 12.665 9.50002 12.665C9.13275 12.665 8.83502 12.3673 8.83502 12V7.00002C8.83502 6.63275 9.13275 6.33502 9.50002 6.33502Z" fill="#666666"/>
</svg>
